<?xml version="1.0" encoding="utf-8"?>
<!-- Generator: Adobe Illustrator 26.0.3, SVG Export Plug-In . SVG Version: 6.00 Build 0)  -->
<svg version="1.2" baseProfile="tiny" id="Flute" xmlns="http://www.w3.org/2000/svg" xmlns:xlink="http://www.w3.org/1999/xlink"
	 x="0px" y="0px" viewBox="0 0 253.8 64" overflow="visible" xml:space="preserve">
<rect id="Body" x="8.4" y="24.3" fill="#FFFFFF" stroke="#000000" stroke-miterlimit="10" width="234.2" height="18.7"/>
<path id="Mouthpiece" fill="#FFFFFF" stroke="#000000" stroke-miterlimit="10" d="M22.8,20.3h42.6c2.8,0,5.1,2.3,5.1,5.1v12.7
	c0,5.7-4.6,10.3-10.3,10.3H27.9c-5.6,0-10.2-4.6-10.2-10.2V25.4C17.8,22.6,20,20.3,22.8,20.3z"/>
<ellipse id="Hole" stroke="#000000" stroke-miterlimit="10" cx="43.8" cy="34.4" rx="9.9" ry="6"/>
<circle id="L1A" fill="#FFFFFF" stroke="#000000" stroke-miterlimit="10" cx="88.8" cy="43" r="6.9"/>
<circle id="L2" fill="#FFFFFF" stroke="#000000" stroke-miterlimit="10" cx="125.1" cy="33.7" r="6.9"/>
<circle id="L3" fill="#FFFFFF" stroke="#000000" stroke-miterlimit="10" cx="142.1" cy="33.7" r="6.9"/>
<circle id="L4" fill="#FFFFFF" stroke="#000000" stroke-miterlimit="10" cx="159.1" cy="33.7" r="6.9"/>
<circle id="R2" fill="#FFFFFF" stroke="#000000" stroke-miterlimit="10" cx="184" cy="33.7" r="6.9"/>
<circle id="R3" fill="#FFFFFF" stroke="#000000" stroke-miterlimit="10" cx="201" cy="33.7" r="6.9"/>
<circle id="R4" fill="#FFFFFF" stroke="#000000" stroke-miterlimit="10" cx="218" cy="33.7" r="6.9"/>
<rect id="L1B" x="95.7" y="36.1" fill="#FFFFFF" stroke="#000000" stroke-miterlimit="10" width="13.8" height="13.8"/>
<path id="L5" fill="#FFFFFF" stroke="#000000" stroke-miterlimit="10" d="M172.2,32.3c0,0-0.4-14-3.6-21.6c-3.1-7.6-8.7-4.4-8.9,0
	c-0.2,4.4,3.1,4.4,5.1,4.2C167,17.6,169.7,20.5,172.2,32.3z"/>
<path id="R5" fill="#FFFFFF" stroke="#000000" stroke-miterlimit="10" d="M237.3,29.9c0,0-0.4,14-3.6,21.6s-8.7,4.4-8.9,0
	s3.1-4.4,5.1-4.2C232.2,44.6,234.9,41.7,237.3,29.9z"/>
</svg>
